<svg width="527" height="127" viewBox="0 0 527 127" fill="none" xmlns="http://www.w3.org/2000/svg">
<g clip-path="url(#clip0_100_1830)">
<path d="M155.014 33.9082H157.699L188.217 67.3555L218.686 33.9082H221.566L227.426 103H218.588L214.145 50.998L188.314 79.6113H187.338L162.289 51.4375L158.383 103H149.643L155.014 33.9082ZM270.795 34.1035C270.795 35.9264 270.242 37.3913 269.135 38.498C268.028 39.6048 266.563 40.1582 264.74 40.1582C262.917 40.1582 261.452 39.6048 260.346 38.498C259.239 37.3913 258.686 35.9264 258.686 34.1035C258.686 32.2806 259.239 30.832 260.346 29.7578C261.452 28.651 262.917 28.0977 264.74 28.0977C266.563 28.0977 268.028 28.651 269.135 29.7578C270.242 30.832 270.795 32.2806 270.795 34.1035ZM260.102 54.1719H269.379V103H260.102V54.1719ZM301.42 61.6914H296.195V55.6367L308.207 46.6035H310.697V54.1719H324.662V61.6914H310.697V81.418C310.697 86.9518 311.397 90.7279 312.797 92.7461C314.197 94.7318 316.931 95.9525 321 96.4082L319.584 103C309.818 104.237 304.04 100.38 302.25 91.4277C301.697 88.7585 301.42 85.8776 301.42 82.7852V61.6914ZM346.449 95.7734L373.793 61.3984H347.426V54.1719H384.145V61.3984L356.801 95.7734H385.023V103H346.449V95.7734ZM449.584 98.2637C445.092 102.072 439.656 103.977 433.275 103.977C425.463 103.977 419.88 101.91 416.527 97.7754C413.37 93.9342 411.791 87.847 411.791 79.5137V54.1719H421.068V78.9277C421.068 84.5918 421.915 88.7585 423.607 91.4277C425.593 94.5853 429.027 96.1641 433.91 96.1641C438.891 96.1641 443.008 94.7969 446.264 92.0625C447.273 91.2161 448.119 90.2884 448.803 89.2793V54.1719H458.08V103H451L449.584 98.2637Z" fill="url(#paint0_radial_100_1830)"/>
<rect width="125" height="125" rx="24" fill="url(#paint1_radial_100_1830)"/>
<path d="M24 95V84.8117V43.3409C24 37.4409 29.9708 33.4155 35.4402 35.6281L53.6974 43.014C60.0418 45.5807 67.1424 45.5423 73.4587 42.9072L90.4766 35.8075C95.9573 33.521 102 37.5475 102 43.486V84.8117V95" stroke="white" stroke-width="24.96" stroke-linecap="round"/>
<circle r="2.62528" transform="matrix(0.703276 -0.710917 0.703276 0.710917 72.6741 67.0405)" fill="white" stroke="white" stroke-width="0.433047"/>
<circle r="1.4209" transform="matrix(0.703276 -0.710917 0.703276 0.710917 72.0889 66.4492)" fill="#7744AA"/>
<circle r="2.62528" transform="matrix(0.703276 -0.710917 0.703276 0.710917 52.8895 67.0405)" fill="white" stroke="white" stroke-width="0.433047"/>
<circle r="1.4209" transform="matrix(0.703276 -0.710917 0.703276 0.710917 52.3037 66.4492)" fill="#7744AA"/>
<rect x="-0.144349" y="0.144349" width="22.3225" height="1.13986" rx="0.569929" transform="matrix(-1 0 0 1 61.3224 74.5374)" fill="url(#paint2_radial_100_1830)" stroke="white" stroke-width="0.288698"/>
<rect x="64.5328" y="74.6817" width="22.3225" height="1.13986" rx="0.569929" fill="url(#paint3_radial_100_1830)" stroke="white" stroke-width="0.288698"/>
<rect x="-0.131341" y="0.156528" width="19.4978" height="1.13974" rx="0.569871" transform="matrix(-0.996112 0.0880955 0.0862259 0.996276 59.8071 76.1643)" fill="url(#paint4_radial_100_1830)" stroke="white" stroke-width="0.288698"/>
<rect x="0.131341" y="0.156528" width="19.4978" height="1.13974" rx="0.569871" transform="matrix(0.996112 0.0880955 -0.0862259 0.996276 65.931 76.1411)" fill="url(#paint5_radial_100_1830)" stroke="white" stroke-width="0.288698"/>
<rect x="-0.117305" y="0.167532" width="16.6753" height="1.1394" rx="0.569699" transform="matrix(-0.984483 0.175477 0.171837 0.985125 63.8817 76.8722)" fill="url(#paint6_radial_100_1830)" stroke="white" stroke-width="0.288698"/>
<rect x="0.117305" y="0.167532" width="16.6753" height="1.1394" rx="0.569699" transform="matrix(0.984483 0.175477 -0.171837 0.985125 61.8871 76.831)" fill="url(#paint7_radial_100_1830)" stroke="white" stroke-width="0.288698"/>
<path d="M58.7852 80.4436V80.4436C59.7542 81.742 61.6854 81.7839 62.7098 80.5287L63.0248 80.1428L63.362 80.5343C64.397 81.7357 66.2791 81.6861 67.2644 80.4436V80.4436" stroke="white" stroke-width="1.01044"/>
<path d="M63.8326 79.1475L67.3354 76.081C68.1878 75.3348 67.66 73.9308 66.5272 73.9308H59.5215C58.3887 73.9308 57.861 75.3348 58.7133 76.081L62.2162 79.1475C62.6789 79.5526 63.3699 79.5526 63.8326 79.1475Z" fill="url(#paint8_radial_100_1830)" stroke="#8254B0" stroke-width="0.433047"/>
</g>
<defs>
<radialGradient id="paint0_radial_100_1830" cx="0" cy="0" r="1" gradientUnits="userSpaceOnUse" gradientTransform="translate(259.204 -23.9892) rotate(47.9869) scale(438.029 1370.25)">
<stop stop-color="#7744AA"/>
<stop offset="1" stop-color="#343A40"/>
</radialGradient>
<radialGradient id="paint1_radial_100_1830" cx="0" cy="0" r="1" gradientUnits="userSpaceOnUse" gradientTransform="translate(67.5 43) rotate(104.517) scale(173.54 135.839)">
<stop stop-color="#8254B0"/>
<stop offset="0.997811" stop-color="#343A40"/>
</radialGradient>
<radialGradient id="paint2_radial_100_1830" cx="0" cy="0" r="1" gradientUnits="userSpaceOnUse" gradientTransform="translate(11.3056 0.714278) rotate(90) scale(0.714278 11.3056)">
<stop offset="1" stop-color="white"/>
<stop offset="1" stop-color="#7744AA"/>
</radialGradient>
<radialGradient id="paint3_radial_100_1830" cx="0" cy="0" r="1" gradientUnits="userSpaceOnUse" gradientTransform="translate(75.694 75.2516) rotate(90) scale(0.714278 11.3056)">
<stop offset="1" stop-color="white"/>
<stop offset="1" stop-color="#7744AA"/>
</radialGradient>
<radialGradient id="paint4_radial_100_1830" cx="0" cy="0" r="1" gradientUnits="userSpaceOnUse" gradientTransform="translate(9.89323 0.71422) rotate(90) scale(0.71422 9.89323)">
<stop offset="1" stop-color="white"/>
<stop offset="1" stop-color="#7744AA"/>
</radialGradient>
<radialGradient id="paint5_radial_100_1830" cx="0" cy="0" r="1" gradientUnits="userSpaceOnUse" gradientTransform="translate(9.89323 0.71422) rotate(90) scale(0.71422 9.89323)">
<stop offset="1" stop-color="white"/>
<stop offset="1" stop-color="#7744AA"/>
</radialGradient>
<radialGradient id="paint6_radial_100_1830" cx="0" cy="0" r="1" gradientUnits="userSpaceOnUse" gradientTransform="translate(8.482 0.714048) rotate(90) scale(0.714048 8.482)">
<stop offset="1" stop-color="white"/>
<stop offset="1" stop-color="#7744AA"/>
</radialGradient>
<radialGradient id="paint7_radial_100_1830" cx="0" cy="0" r="1" gradientUnits="userSpaceOnUse" gradientTransform="translate(8.482 0.714048) rotate(90) scale(0.714048 8.482)">
<stop offset="1" stop-color="white"/>
<stop offset="1" stop-color="#7744AA"/>
</radialGradient>
<radialGradient id="paint8_radial_100_1830" cx="0" cy="0" r="1" gradientUnits="userSpaceOnUse" gradientTransform="translate(63.0244 75.8572) rotate(144.947) scale(99.6715 200.088)">
<stop offset="0.9999" stop-color="white"/>
<stop offset="1" stop-color="#7744AA" stop-opacity="0"/>
</radialGradient>
<clipPath id="clip0_100_1830">
<rect width="527" height="127" fill="white"/>
</clipPath>
</defs>
</svg>
