<svg width="129" height="129" viewBox="0 0 129 129" fill="none" xmlns="http://www.w3.org/2000/svg">
<rect x="2" y="2" width="125" height="125" rx="24" fill="url(#paint0_radial_94_1773)"/>
<path d="M26 97V86.8117V45.3409C26 39.4409 31.9708 35.4155 37.4402 37.6281L55.6974 45.014C62.0418 47.5807 69.1424 47.5423 75.4587 44.9072L92.4766 37.8075C97.9573 35.521 104 39.5475 104 45.486V86.8117V97" stroke="white" stroke-width="24.96" stroke-linecap="round"/>
<circle r="2.62528" transform="matrix(0.703276 -0.710917 0.703276 0.710917 74.6741 69.0404)" fill="white" stroke="white" stroke-width="0.433047"/>
<circle r="1.4209" transform="matrix(0.703276 -0.710917 0.703276 0.710917 74.0889 68.449)" fill="#7744AA"/>
<circle r="2.62528" transform="matrix(0.703276 -0.710917 0.703276 0.710917 54.8895 69.0404)" fill="white" stroke="white" stroke-width="0.433047"/>
<circle r="1.4209" transform="matrix(0.703276 -0.710917 0.703276 0.710917 54.3037 68.449)" fill="#7744AA"/>
<rect x="-0.144349" y="0.144349" width="22.3225" height="1.13986" rx="0.569929" transform="matrix(-1 0 0 1 63.3224 76.5375)" fill="url(#paint1_radial_94_1773)" stroke="white" stroke-width="0.288698"/>
<rect x="66.5328" y="76.6818" width="22.3225" height="1.13986" rx="0.569929" fill="url(#paint2_radial_94_1773)" stroke="white" stroke-width="0.288698"/>
<rect x="-0.131341" y="0.156528" width="19.4978" height="1.13974" rx="0.569871" transform="matrix(-0.996112 0.0880955 0.0862259 0.996276 61.8071 78.1644)" fill="url(#paint3_radial_94_1773)" stroke="white" stroke-width="0.288698"/>
<rect x="0.131341" y="0.156528" width="19.4978" height="1.13974" rx="0.569871" transform="matrix(0.996112 0.0880955 -0.0862259 0.996276 67.931 78.1412)" fill="url(#paint4_radial_94_1773)" stroke="white" stroke-width="0.288698"/>
<rect x="-0.117305" y="0.167532" width="16.6753" height="1.1394" rx="0.569699" transform="matrix(-0.984483 0.175477 0.171837 0.985125 65.8817 78.8724)" fill="url(#paint5_radial_94_1773)" stroke="white" stroke-width="0.288698"/>
<rect x="0.117305" y="0.167532" width="16.6753" height="1.1394" rx="0.569699" transform="matrix(0.984483 0.175477 -0.171837 0.985125 63.8871 78.8313)" fill="url(#paint6_radial_94_1773)" stroke="white" stroke-width="0.288698"/>
<path d="M60.7852 82.4436V82.4436C61.7542 83.742 63.6854 83.7839 64.7098 82.5287L65.0248 82.1428L65.362 82.5343C66.397 83.7357 68.2791 83.6861 69.2644 82.4436V82.4436" stroke="white" stroke-width="1.01044"/>
<path d="M65.8326 81.1475L69.3354 78.081C70.1878 77.3348 69.66 75.9308 68.5272 75.9308H61.5215C60.3887 75.9308 59.861 77.3348 60.7133 78.081L64.2162 81.1475C64.6789 81.5526 65.3699 81.5526 65.8326 81.1475Z" fill="url(#paint7_radial_94_1773)" stroke="#8254B0" stroke-width="0.433047"/>
<rect x="2" y="2" width="125" height="125" rx="24" stroke="white" stroke-width="4"/>
<defs>
<radialGradient id="paint0_radial_94_1773" cx="0" cy="0" r="1" gradientUnits="userSpaceOnUse" gradientTransform="translate(69.5 45) rotate(104.517) scale(173.54 135.839)">
<stop stop-color="#8254B0"/>
<stop offset="0.997811" stop-color="#343A40"/>
</radialGradient>
<radialGradient id="paint1_radial_94_1773" cx="0" cy="0" r="1" gradientUnits="userSpaceOnUse" gradientTransform="translate(11.3056 0.714278) rotate(90) scale(0.714278 11.3056)">
<stop offset="1" stop-color="white"/>
<stop offset="1" stop-color="#7744AA"/>
</radialGradient>
<radialGradient id="paint2_radial_94_1773" cx="0" cy="0" r="1" gradientUnits="userSpaceOnUse" gradientTransform="translate(77.694 77.2518) rotate(90) scale(0.714278 11.3056)">
<stop offset="1" stop-color="white"/>
<stop offset="1" stop-color="#7744AA"/>
</radialGradient>
<radialGradient id="paint3_radial_94_1773" cx="0" cy="0" r="1" gradientUnits="userSpaceOnUse" gradientTransform="translate(9.89323 0.71422) rotate(90) scale(0.71422 9.89323)">
<stop offset="1" stop-color="white"/>
<stop offset="1" stop-color="#7744AA"/>
</radialGradient>
<radialGradient id="paint4_radial_94_1773" cx="0" cy="0" r="1" gradientUnits="userSpaceOnUse" gradientTransform="translate(9.89323 0.71422) rotate(90) scale(0.71422 9.89323)">
<stop offset="1" stop-color="white"/>
<stop offset="1" stop-color="#7744AA"/>
</radialGradient>
<radialGradient id="paint5_radial_94_1773" cx="0" cy="0" r="1" gradientUnits="userSpaceOnUse" gradientTransform="translate(8.482 0.714048) rotate(90) scale(0.714048 8.482)">
<stop offset="1" stop-color="white"/>
<stop offset="1" stop-color="#7744AA"/>
</radialGradient>
<radialGradient id="paint6_radial_94_1773" cx="0" cy="0" r="1" gradientUnits="userSpaceOnUse" gradientTransform="translate(8.482 0.714048) rotate(90) scale(0.714048 8.482)">
<stop offset="1" stop-color="white"/>
<stop offset="1" stop-color="#7744AA"/>
</radialGradient>
<radialGradient id="paint7_radial_94_1773" cx="0" cy="0" r="1" gradientUnits="userSpaceOnUse" gradientTransform="translate(65.0244 77.8572) rotate(144.947) scale(99.6715 200.088)">
<stop offset="0.9999" stop-color="white"/>
<stop offset="1" stop-color="#7744AA" stop-opacity="0"/>
</radialGradient>
</defs>
</svg>
