<svg width="250" height="250" viewBox="0 0 250 250" fill="none" xmlns="http://www.w3.org/2000/svg">
<rect width="250" height="250" rx="50" fill="url(#paint0_radial_100_1811)"/>
<path d="M50 186V166.579V87.6547C50 76.3293 61.4435 68.5889 71.9552 72.8042L107.254 86.9593C119.371 91.8183 132.907 91.7455 144.971 86.7566L177.886 73.1452C188.419 68.7891 200 76.5318 200 87.9308V166.579V186" stroke="white" stroke-width="48" stroke-linecap="round"/>
<circle r="5.02449" transform="matrix(0.706393 -0.70782 0.706393 0.70782 143.604 132.702)" fill="white" stroke="white" stroke-width="0.832783"/>
<circle r="2.72044" transform="matrix(0.706393 -0.70782 0.706393 0.70782 142.479 131.575)" fill="#7744AA"/>
<circle r="5.02449" transform="matrix(0.706393 -0.70782 0.706393 0.70782 105.557 132.702)" fill="white" stroke="white" stroke-width="0.832783"/>
<circle r="2.72044" transform="matrix(0.706393 -0.70782 0.706393 0.70782 104.431 131.575)" fill="#7744AA"/>
<rect x="-0.277594" y="0.277594" width="42.9279" height="2.168" rx="1.084" transform="matrix(-1 0 0 1 121.774 146.993)" fill="url(#paint1_radial_100_1811)" stroke="white" stroke-width="0.555189"/>
<rect x="127.948" y="147.271" width="42.9279" height="2.168" rx="1.084" fill="url(#paint2_radial_100_1811)" stroke="white" stroke-width="0.555189"/>
<rect x="-0.252388" y="0.300785" width="37.4931" height="2.16796" rx="1.08398" transform="matrix(-0.996179 0.0873305 0.0869813 0.99621 118.86 150.094)" fill="url(#paint3_radial_100_1811)" stroke="white" stroke-width="0.555189"/>
<rect x="0.252388" y="0.300785" width="37.4931" height="2.16796" rx="1.08398" transform="matrix(0.996179 0.0873305 -0.0869813 0.99621 130.637 150.05)" fill="url(#paint4_radial_100_1811)" stroke="white" stroke-width="0.555189"/>
<rect x="-0.225251" y="0.321692" width="32.0591" height="2.16783" rx="1.08392" transform="matrix(-0.984748 0.173988 0.173308 0.984868 126.696 151.444)" fill="url(#paint5_radial_100_1811)" stroke="white" stroke-width="0.555189"/>
<rect x="0.225251" y="0.321692" width="32.0591" height="2.16783" rx="1.08392" transform="matrix(0.984748 0.173988 -0.173308 0.984868 122.86 151.366)" fill="url(#paint6_radial_100_1811)" stroke="white" stroke-width="0.555189"/>
<path d="M116.895 158.252V158.252C118.764 160.735 122.465 160.816 124.441 158.416L125.048 157.678L125.711 158.441C127.7 160.73 131.306 160.62 133.201 158.252V158.252" stroke="white" stroke-width="1.94316"/>
<path d="M126.593 155.785L133.281 149.982C134.93 148.551 133.918 145.84 131.734 145.84H118.36C116.176 145.84 115.164 148.551 116.813 149.982L123.5 155.785C124.388 156.555 125.706 156.555 126.593 155.785Z" fill="url(#paint7_radial_100_1811)" stroke="#8254B0" stroke-width="0.832783"/>
<defs>
<radialGradient id="paint0_radial_100_1811" cx="0" cy="0" r="1" gradientUnits="userSpaceOnUse" gradientTransform="translate(135 86) rotate(104.517) scale(347.081 271.677)">
<stop stop-color="#8254B0"/>
<stop offset="0.997811" stop-color="#343A40"/>
</radialGradient>
<radialGradient id="paint1_radial_100_1811" cx="0" cy="0" r="1" gradientUnits="userSpaceOnUse" gradientTransform="translate(21.7416 1.36159) rotate(90) scale(1.36159 21.7416)">
<stop offset="1" stop-color="white"/>
<stop offset="1" stop-color="#7744AA"/>
</radialGradient>
<radialGradient id="paint2_radial_100_1811" cx="0" cy="0" r="1" gradientUnits="userSpaceOnUse" gradientTransform="translate(149.411 148.355) rotate(90) scale(1.36159 21.7416)">
<stop offset="1" stop-color="white"/>
<stop offset="1" stop-color="#7744AA"/>
</radialGradient>
<radialGradient id="paint3_radial_100_1811" cx="0" cy="0" r="1" gradientUnits="userSpaceOnUse" gradientTransform="translate(19.0241 1.36157) rotate(90) scale(1.36157 19.0241)">
<stop offset="1" stop-color="white"/>
<stop offset="1" stop-color="#7744AA"/>
</radialGradient>
<radialGradient id="paint4_radial_100_1811" cx="0" cy="0" r="1" gradientUnits="userSpaceOnUse" gradientTransform="translate(19.0241 1.36157) rotate(90) scale(1.36157 19.0241)">
<stop offset="1" stop-color="white"/>
<stop offset="1" stop-color="#7744AA"/>
</radialGradient>
<radialGradient id="paint5_radial_100_1811" cx="0" cy="0" r="1" gradientUnits="userSpaceOnUse" gradientTransform="translate(16.3072 1.36151) rotate(90) scale(1.36151 16.3072)">
<stop offset="1" stop-color="white"/>
<stop offset="1" stop-color="#7744AA"/>
</radialGradient>
<radialGradient id="paint6_radial_100_1811" cx="0" cy="0" r="1" gradientUnits="userSpaceOnUse" gradientTransform="translate(16.3072 1.36151) rotate(90) scale(1.36151 16.3072)">
<stop offset="1" stop-color="white"/>
<stop offset="1" stop-color="#7744AA"/>
</radialGradient>
<radialGradient id="paint7_radial_100_1811" cx="0" cy="0" r="1" gradientUnits="userSpaceOnUse" gradientTransform="translate(125.047 149.509) rotate(145.183) scale(191.124 382.518)">
<stop offset="0.9999" stop-color="white"/>
<stop offset="1" stop-color="#7744AA" stop-opacity="0"/>
</radialGradient>
</defs>
</svg>
