<?xml version="1.0" encoding="UTF-8"?>
<svg xmlns="http://www.w3.org/2000/svg" xmlns:xlink="http://www.w3.org/1999/xlink" width="150px" height="174px" viewBox="0 0 150 174" version="1.1">
<g id="surface1">
<path style=" stroke:none;fill-rule:nonzero;fill:rgb(58.431373%,64.705882%,65.098039%);fill-opacity:1;" d="M 0 8.25 L 0 90.75 C 0 125.398438 29.964844 156.75 74.25 173.25 C 118.535156 156.75 148.5 125.398438 148.5 90.75 L 148.5 8.25 Z M 0 8.25 "/>
<path style=" stroke:none;fill-rule:nonzero;fill:rgb(92.54902%,94.117647%,94.509804%);fill-opacity:1;" d="M 0 0 L 0 82.5 C 0 117.148438 29.964844 148.5 74.25 165 C 118.535156 148.5 148.5 117.148438 148.5 82.5 L 148.5 0 Z M 0 0 "/>
<path style=" stroke:none;fill-rule:nonzero;fill:rgb(74.117647%,76.470588%,78.039216%);fill-opacity:1;" d="M 0 0 L 0 82.5 C 0 117.148438 29.964844 148.5 74.25 165 L 74.25 0 Z M 0 0 "/>
<path style=" stroke:none;fill-rule:nonzero;fill:rgb(46.666667%,26.666667%,66.666667%);fill-opacity:1;" d="M 16.5 16.5 L 16.5 82.5 C 16.5 110.550781 39.808594 135.300781 74.25 148.5 C 108.695312 135.300781 132 110.550781 132 82.5 L 132 16.5 Z M 16.5 16.5 "/>
<path style=" stroke:none;fill-rule:nonzero;fill:rgb(55.294118%,39.215686%,71.372549%);fill-opacity:1;" d="M 74.25 16.5 L 74.25 148.5 C 108.695312 135.300781 132 110.550781 132 82.5 L 132 16.5 Z M 74.25 16.5 "/>
<path style=" stroke:none;fill-rule:nonzero;fill:rgb(92.54902%,94.117647%,94.509804%);fill-opacity:0.901961;" d="M 90.898438 62.101562 L 90.898438 55.5 C 90.898438 46.261719 83.640625 39 74.398438 39 C 65.160156 39 57.898438 46.261719 57.898438 55.5 L 57.898438 62.101562 C 52.289062 62.101562 48 66.390625 48 72 L 48 95.101562 C 48 100.710938 52.289062 105 57.898438 105 L 90.898438 105 C 96.511719 105 100.800781 100.710938 100.800781 95.101562 L 100.800781 72 C 100.800781 66.390625 96.511719 62.101562 90.898438 62.101562 Z M 64.5 55.5 C 64.5 49.890625 68.789062 45.601562 74.398438 45.601562 C 80.011719 45.601562 84.300781 49.890625 84.300781 55.5 L 84.300781 62.101562 L 64.5 62.101562 Z M 78.03125 83.550781 L 77.699219 83.878906 L 77.699219 88.5 C 77.699219 90.480469 76.378906 91.800781 74.398438 91.800781 C 72.421875 91.800781 71.101562 90.480469 71.101562 88.5 L 71.101562 83.878906 C 69.121094 81.898438 68.789062 78.929688 70.769531 76.949219 C 72.75 74.96875 75.71875 74.640625 77.699219 76.621094 C 79.679688 78.269531 80.011719 81.570312 78.03125 83.550781 Z M 78.03125 83.550781 "/>
</g>
</svg>
